<?xml version="1.0" encoding="utf-8"?>
<svg version="1.1" id="Layer_1" xmlns:sketch="http://www.bohemiancoding.com/sketch/ns"
	 xmlns="http://www.w3.org/2000/svg" xmlns:xlink="http://www.w3.org/1999/xlink" x="0px" y="0px" viewBox="0 0 20 20"
	 style="enable-background:new 0 0 20 20;" xml:space="preserve">
<style type="text/css">
	.st0{fill:#4285F4;}
	.st1{fill:#34A853;}
	.st2{fill:#FBBC05;}
	.st3{fill:#EA4335;}
	.st4{fill:none;}
</style>
<g id="_x39_-PATCH" transform="translate(-668.000000, -219.000000)" sketch:type="MSArtboardGroup">
</g>
<g id="logo_googleg_48dp" transform="translate(15.000000, 15.000000)" sketch:type="MSLayerGroup">
	<path id="Shape" sketch:type="MSShapeGroup" class="st0" d="M3.6-4.8c0-0.6-0.1-1.3-0.2-1.8H-5v3.5h4.8C-0.4-2-1-1.1-2-0.4v2.3H1
		C2.7,0.3,3.6-2.1,3.6-4.8L3.6-4.8z"/>
	<path id="Shape_1_" sketch:type="MSShapeGroup" class="st1" d="M-5,4c2.4,0,4.5-0.8,6-2.2L-2-0.4c-0.8,0.5-1.8,0.9-3,0.9
		c-2.3,0-4.3-1.6-5-3.7h-3V-1C-11.6,2-8.5,4-5,4L-5,4z"/>
	<path id="Shape_2_" sketch:type="MSShapeGroup" class="st2" d="M-10-3.3c-0.2-0.5-0.3-1.1-0.3-1.7s0.1-1.2,0.3-1.7V-9h-3
		c-0.6,1.2-1,2.6-1,4s0.3,2.8,1,4L-10-3.3L-10-3.3z"/>
	<path id="Shape_3_" sketch:type="MSShapeGroup" class="st3" d="M-5-10.4c1.3,0,2.5,0.5,3.4,1.3L1-11.7C-0.5-13.1-2.6-14-5-14
		c-3.5,0-6.6,2-8,5l3,2.3C-9.3-8.8-7.3-10.4-5-10.4L-5-10.4z"/>
	<path id="Shape_4_" sketch:type="MSShapeGroup" class="st4" d="M-14-14H4V4h-18V-14z"/>
</g>
<g id="handles_square" sketch:type="MSLayerGroup">
</g>
</svg>
